<svg width="492" height="159" viewBox="0 0 492 159" fill="none" xmlns="http://www.w3.org/2000/svg">
<path d="M64.1563 23L89.1201 46.6145L66.1804 68.2048L22.9996 23H64.1563Z" fill="#003CFF"/>
<path d="M64.1563 113.217L89.1201 89.6023L66.1804 68.012L22.9996 113.217H64.1563Z" fill="#003CFF"/>
<path d="M107.964 46L83 69.6145L105.94 91.2048L149.12 46H107.964Z" fill="#003CFF"/>
<path d="M107.964 136.41L83 112.795L105.94 91.2048L149.12 136.41H107.964Z" fill="#003CFF"/>
<path d="M451.487 117.949C448.955 117.949 446.518 117.633 444.176 117C441.833 116.304 439.681 115.354 437.719 114.152C435.757 112.886 434.048 111.366 432.592 109.594L439.238 102.948C440.821 104.783 442.625 106.176 444.65 107.125C446.739 108.012 449.081 108.455 451.676 108.455C454.019 108.455 455.791 108.106 456.994 107.41C458.196 106.714 458.798 105.701 458.798 104.372C458.798 102.979 458.228 101.903 457.089 101.144C455.949 100.384 454.462 99.751 452.626 99.2446C450.854 98.6749 448.955 98.1052 446.929 97.5355C444.967 96.9659 443.068 96.2063 441.232 95.2568C439.46 94.244 438.004 92.8831 436.864 91.174C435.725 89.4649 435.155 87.2495 435.155 84.5276C435.155 81.6158 435.82 79.1155 437.149 77.0267C438.542 74.9378 440.473 73.3237 442.941 72.1843C445.473 71.0449 448.48 70.4752 451.961 70.4752C455.633 70.4752 458.861 71.1399 461.646 72.4691C464.495 73.7351 466.868 75.6657 468.767 78.261L462.121 84.9074C460.792 83.2616 459.272 82.0273 457.563 81.2044C455.854 80.3815 453.892 79.9701 451.676 79.9701C449.588 79.9701 447.973 80.2866 446.834 80.9196C445.695 81.5525 445.125 82.4704 445.125 83.6731C445.125 84.939 445.695 85.9202 446.834 86.6165C447.973 87.3128 449.429 87.9141 451.202 88.4205C453.037 88.9269 454.936 89.4966 456.899 90.1296C458.924 90.6992 460.823 91.5221 462.596 92.5982C464.431 93.611 465.919 95.0036 467.058 96.776C468.197 98.485 468.767 100.732 468.767 103.517C468.767 107.948 467.216 111.461 464.115 114.057C461.013 116.652 456.804 117.949 451.487 117.949Z" fill="black"/>
<path d="M410.688 117.949C408.156 117.949 405.719 117.633 403.377 117C401.035 116.304 398.882 115.354 396.92 114.152C394.958 112.886 393.249 111.366 391.793 109.594L398.439 102.948C400.022 104.783 401.826 106.176 403.851 107.125C405.94 108.012 408.282 108.455 410.878 108.455C413.22 108.455 414.992 108.106 416.195 107.41C417.397 106.714 417.999 105.701 417.999 104.372C417.999 102.979 417.429 101.903 416.29 101.144C415.15 100.384 413.663 99.751 411.827 99.2446C410.055 98.6749 408.156 98.1052 406.13 97.5355C404.168 96.9659 402.269 96.2063 400.433 95.2568C398.661 94.244 397.205 92.8831 396.066 91.174C394.926 89.4649 394.357 87.2495 394.357 84.5276C394.357 81.6158 395.021 79.1155 396.351 77.0267C397.743 74.9378 399.674 73.3237 402.142 72.1843C404.674 71.0449 407.681 70.4752 411.162 70.4752C414.834 70.4752 418.062 71.1399 420.847 72.4691C423.696 73.7351 426.069 75.6657 427.968 78.261L421.322 84.9074C419.993 83.2616 418.474 82.0273 416.764 81.2044C415.055 80.3815 413.093 79.9701 410.878 79.9701C408.789 79.9701 407.175 80.2866 406.035 80.9196C404.896 81.5525 404.326 82.4704 404.326 83.6731C404.326 84.939 404.896 85.9202 406.035 86.6165C407.175 87.3128 408.631 87.9141 410.403 88.4205C412.239 88.9269 414.138 89.4966 416.1 90.1296C418.125 90.6992 420.024 91.5221 421.797 92.5982C423.632 93.611 425.12 95.0036 426.259 96.776C427.399 98.485 427.968 100.732 427.968 103.517C427.968 107.948 426.418 111.461 423.316 114.057C420.214 116.652 416.005 117.949 410.688 117.949Z" fill="black"/>
<path d="M359.789 117.949C355.674 117.949 351.94 116.905 348.585 114.816C345.293 112.727 342.666 109.911 340.704 106.366C338.805 102.758 337.855 98.7382 337.855 94.3073C337.855 89.8131 338.805 85.7936 340.704 82.2488C342.666 78.6408 345.293 75.7923 348.585 73.7035C351.94 71.5513 355.674 70.4752 359.789 70.4752C363.27 70.4752 366.34 71.2348 368.999 72.754C371.72 74.2099 373.873 76.2354 375.455 78.8307C377.038 81.4259 377.829 84.3694 377.829 87.6609V100.764C377.829 104.055 377.038 106.999 375.455 109.594C373.936 112.189 371.815 114.246 369.094 115.766C366.372 117.222 363.27 117.949 359.789 117.949ZM361.498 108.075C365.359 108.075 368.461 106.777 370.803 104.182C373.208 101.587 374.411 98.2635 374.411 94.2124C374.411 91.4905 373.873 89.0851 372.797 86.9963C371.72 84.9074 370.201 83.2933 368.239 82.1539C366.34 80.9512 364.093 80.3499 361.498 80.3499C358.966 80.3499 356.719 80.9512 354.756 82.1539C352.857 83.2933 351.338 84.9074 350.199 86.9963C349.123 89.0851 348.585 91.4905 348.585 94.2124C348.585 96.9342 349.123 99.3396 350.199 101.428C351.338 103.517 352.857 105.163 354.756 106.366C356.719 107.505 358.966 108.075 361.498 108.075ZM373.746 117V104.752L375.55 93.6427L373.746 82.6286V71.4247H384.19V117H373.746Z" fill="black"/>
<path d="M310.028 117.949C306.546 117.949 303.445 117.222 300.723 115.766C298.001 114.246 295.849 112.189 294.266 109.594C292.747 106.999 291.988 104.055 291.988 100.764V87.6609C291.988 84.3694 292.779 81.4259 294.361 78.8307C295.944 76.2354 298.096 74.2099 300.818 72.754C303.54 71.2348 306.61 70.4752 310.028 70.4752C314.142 70.4752 317.845 71.5513 321.137 73.7035C324.492 75.7923 327.118 78.6408 329.017 82.2488C330.98 85.7936 331.961 89.8131 331.961 94.3073C331.961 98.7382 330.98 102.758 329.017 106.366C327.118 109.911 324.492 112.727 321.137 114.816C317.845 116.905 314.142 117.949 310.028 117.949ZM308.319 108.075C310.851 108.075 313.066 107.505 314.965 106.366C316.927 105.163 318.447 103.517 319.523 101.428C320.662 99.3396 321.232 96.9342 321.232 94.2124C321.232 91.4905 320.662 89.0851 319.523 86.9963C318.447 84.9074 316.927 83.2933 314.965 82.1539C313.066 80.9512 310.851 80.3499 308.319 80.3499C305.787 80.3499 303.54 80.9512 301.577 82.1539C299.615 83.2933 298.096 84.9074 297.02 86.9963C295.944 89.0851 295.406 91.4905 295.406 94.2124C295.406 96.9342 295.944 99.3396 297.02 101.428C298.096 103.517 299.615 105.163 301.577 106.366C303.54 107.505 305.787 108.075 308.319 108.075ZM285.626 135.99V71.4247H296.07V83.6731L294.266 94.782L296.07 105.796V135.99H285.626Z" fill="black"/>
<path d="M253.014 117.949C248.583 117.949 244.563 116.905 240.955 114.816C237.347 112.664 234.467 109.784 232.315 106.176C230.226 102.568 229.182 98.5483 229.182 94.1174C229.182 89.6865 230.226 85.6986 232.315 82.1539C234.467 78.6091 237.347 75.7923 240.955 73.7035C244.563 71.5513 248.583 70.4752 253.014 70.4752C257.508 70.4752 261.559 71.5197 265.167 73.6085C268.775 75.6974 271.624 78.5458 273.713 82.1539C275.865 85.6986 276.941 89.6865 276.941 94.1174C276.941 98.5483 275.865 102.568 273.713 106.176C271.624 109.784 268.775 112.664 265.167 114.816C261.559 116.905 257.508 117.949 253.014 117.949ZM253.014 107.885C255.609 107.885 257.888 107.315 259.85 106.176C261.876 104.973 263.426 103.327 264.502 101.239C265.642 99.1497 266.212 96.776 266.212 94.1174C266.212 91.4588 265.642 89.1168 264.502 87.0912C263.363 85.0656 261.812 83.4832 259.85 82.3438C257.888 81.1411 255.609 80.5398 253.014 80.5398C250.482 80.5398 248.203 81.1411 246.177 82.3438C244.215 83.4832 242.664 85.0656 241.525 87.0912C240.449 89.1168 239.911 91.4588 239.911 94.1174C239.911 96.776 240.449 99.1497 241.525 101.239C242.664 103.327 244.215 104.973 246.177 106.176C248.203 107.315 250.482 107.885 253.014 107.885Z" fill="black"/>
<path d="M209.966 117V71.4247H220.41V117H209.966ZM215.188 63.0692C213.416 63.0692 211.928 62.4679 210.726 61.2652C209.586 60.0625 209.017 58.575 209.017 56.8026C209.017 55.0302 209.586 53.5427 210.726 52.34C211.928 51.1374 213.416 50.536 215.188 50.536C217.024 50.536 218.511 51.1374 219.651 52.34C220.79 53.5427 221.36 55.0302 221.36 56.8026C221.36 58.575 220.79 60.0625 219.651 61.2652C218.511 62.4679 217.024 63.0692 215.188 63.0692Z" fill="black"/>
<path d="M190.427 117L177.324 97.7254L175.425 96.0163L157.765 71.4247H170.393L182.072 88.3255L183.876 89.9396L202.96 117H190.427ZM156.91 117L175.33 91.4588L181.407 98.9598L169.064 117H156.91ZM184.825 95.8265L178.653 88.4205L190.047 71.4247H202.106L184.825 95.8265Z" fill="black"/>
</svg>
